<?xml version="1.0" standalone="no"?>
<!DOCTYPE svg PUBLIC "-//W3C//DTD SVG 20010904//EN"
 "http://www.w3.org/TR/2001/REC-SVG-20010904/DTD/svg10.dtd">
<svg version="1.0" xmlns="http://www.w3.org/2000/svg"
 width="500.000000pt" height="500.000000pt" viewBox="0 0 500.000000 500.000000"
 preserveAspectRatio="xMidYMid meet">

<g transform="translate(0.000000,500.000000) scale(0.100000,-0.100000)"
fill="#000000" stroke="none">
<path d="M3396 4115 c-148 -28 -272 -78 -479 -191 l-47 -26 -88 31 c-137 48
-199 61 -318 68 -232 12 -424 -42 -635 -183 -41 -27 -135 -108 -209 -180 -74
-72 -149 -139 -167 -148 -24 -12 -61 -16 -155 -16 -187 0 -303 -21 -456 -80
-169 -65 -362 -206 -461 -336 -62 -83 -135 -227 -156 -309 -52 -204 26 -421
197 -550 122 -92 253 -136 464 -158 148 -16 191 -34 263 -112 66 -72 90 -131
105 -258 7 -62 10 -125 6 -142 -6 -32 4 -323 15 -413 6 -49 10 -55 60 -93 71
-53 185 -90 390 -124 133 -23 178 -26 265 -21 145 8 433 80 760 191 163 55
295 78 403 69 44 -4 77 -3 77 2 0 5 -38 20 -84 33 -156 44 -314 19 -846 -134
-319 -91 -487 -96 -764 -20 -128 35 -186 60 -186 80 1 21 161 125 302 196 363
182 802 237 1222 153 164 -33 331 -92 432 -153 110 -66 137 -56 181 71 18 51
28 103 32 172 l6 99 103 33 c229 74 382 167 565 344 223 215 392 437 498 655
84 173 103 242 96 350 -8 137 -20 163 -218 457 -98 146 -151 204 -204 226 -17
6 -84 22 -150 36 -181 35 -201 47 -271 152 -90 134 -148 188 -231 214 -89 28
-216 34 -317 15z m329 -111 c38 -13 70 -37 129 -96 43 -43 77 -80 74 -83 -2
-2 -46 1 -98 6 -75 9 -107 8 -150 -2 -30 -8 -54 -18 -53 -24 2 -5 42 -13 90
-16 117 -9 158 -21 283 -82 100 -49 109 -51 180 -50 133 3 199 -44 322 -232
159 -241 191 -350 153 -510 -73 -310 -543 -863 -870 -1025 -44 -22 -129 -59
-189 -82 -105 -40 -110 -41 -164 -30 -31 7 -96 35 -151 66 -149 84 -207 98
-448 103 l-203 5 0 90 c0 139 -40 307 -107 448 -30 63 -55 94 -152 190 -97 97
-252 220 -276 220 -4 0 34 -44 84 -97 248 -269 301 -376 301 -608 0 -96 -13
-232 -22 -240 -2 -1 -64 -8 -138 -14 -188 -17 -496 -73 -586 -108 -10 -4 -14
4 -14 23 -1 16 -11 81 -24 145 -27 134 -62 208 -138 293 -71 79 -149 132 -338
226 l-165 82 80 -73 c207 -188 291 -293 365 -453 51 -111 102 -263 95 -284 -3
-9 -42 -37 -87 -62 -45 -25 -105 -66 -134 -92 -28 -27 -56 -48 -61 -48 -6 0
-10 38 -11 83 -2 143 -36 244 -112 329 -22 25 -36 48 -33 52 3 3 29 6 57 6 73
0 156 11 156 21 0 23 -69 38 -235 53 -471 44 -677 134 -770 339 -55 119 -43
245 39 412 120 244 367 418 683 482 122 24 400 24 533 -1 169 -32 186 -34 221
-27 37 7 47 34 14 39 -39 6 -259 63 -273 71 -10 6 30 42 140 128 172 134 243
180 350 224 134 55 250 80 398 86 212 8 331 -25 478 -133 199 -146 244 -152
100 -12 -54 52 -98 97 -98 100 0 3 55 31 123 61 121 55 246 97 342 116 71 14
250 6 310 -15z m-930 -2164 c260 -19 415 -55 542 -126 33 -19 73 -48 88 -66
26 -30 27 -37 22 -98 -8 -84 -37 -210 -49 -210 -5 0 -35 22 -68 49 -73 61
-143 94 -262 126 -262 70 -584 93 -838 60 -333 -42 -637 -159 -830 -320 l-55
-45 -12 82 c-13 95 -16 159 -7 182 7 17 142 105 233 151 335 169 786 248 1236
215z"/>
<path d="M3751 3048 c-24 -118 -91 -213 -203 -289 -202 -137 -328 -300 -392
-507 -25 -79 -35 -172 -18 -172 4 0 24 44 44 98 69 179 128 249 326 383 206
140 273 233 280 390 4 90 -3 159 -16 159 -5 0 -14 -28 -21 -62z"/>
<path d="M3903 2125 c-52 -41 -143 -77 -210 -83 -64 -5 -69 -7 -55 -29 18 -28
64 -34 115 -16 47 17 187 124 187 143 0 13 -1 13 -37 -15z"/>
</g>
</svg>
